<?xml version="1.0" encoding="UTF-8" standalone="no"?>
<!-- Created with Inkscape (http://www.inkscape.org/) -->

<svg
   width="211.57385"
   height="196.29611"
   viewBox="0 0 55.978915 51.936679"
   version="1.1"
   id="svg1"
   xmlns="http://www.w3.org/2000/svg"
   xmlns:svg="http://www.w3.org/2000/svg">
  <defs
     id="defs1" />
  <g
     id="layer1"
     transform="translate(-64.952645,-13.336567)">
    <path
       style="font-variation-settings:'wght' 830;fill:#000000;stroke-width:1.178;stroke-linejoin:round;stroke-opacity:0.06"
       id="path6"
       d="m 77.257515,29.090847 c 0.546372,1.304814 1.029327,2.637277 1.497285,3.972259 0.735015,2.136981 1.399455,4.297259 2.004883,6.474269 0.555058,2.073285 1.032383,4.166002 1.492927,6.261928 0.245216,1.141532 0.126098,0.580559 0.357632,1.682864 0.726794,3.460022 2.021456,3.188073 1.294662,-0.271952 v 0 c -0.23322,-1.110232 -0.113242,-0.545267 -0.360207,-1.694839 -0.465788,-2.119614 -0.948708,-4.235953 -1.510498,-6.332559 -0.613574,-2.204913 -1.286113,-4.393115 -2.031002,-6.557454 -0.48659,-1.387279 -0.986237,-2.773556 -1.562431,-4.12614 -1.58114,-3.162279 -2.764391,-2.570652 -1.183251,0.591624 z" />
    <path
       style="font-variation-settings:'wght' 830;fill:#000000;stroke-width:1.178;stroke-linejoin:round;stroke-opacity:0.06"
       id="path7"
       d="m 77.795768,27.406713 c 1.154367,0.464431 2.32605,0.883914 3.492535,1.316519 2.585159,0.986425 5.189669,1.918094 7.806377,2.817013 1.804726,0.615979 3.625996,1.181103 5.450972,1.733465 3.383952,1.024136 3.767162,-0.242064 0.383207,-1.2662 v 0 C 93.11948,31.459955 91.313788,30.899707 89.52448,30.289091 86.917866,29.393683 84.323454,28.465535 81.748302,27.482865 80.607866,27.059931 79.462815,26.648877 78.333055,26.197816 75.102244,24.7619 74.564957,25.970797 77.795768,27.406713 Z" />
    <path
       style="font-variation-settings:'wght' 830;fill:#000000;stroke-width:1.178;stroke-linejoin:round;stroke-opacity:0.06"
       id="path8"
       d="m 94.464532,34.002065 c -0.338383,0.365707 -0.603803,0.793081 -0.895842,1.195724 -0.726363,0.995884 -1.482283,1.969619 -2.225024,2.953202 -0.976868,1.292225 -1.912175,2.614986 -2.865694,3.924356 -0.845458,1.143831 -1.677257,2.297705 -2.492431,3.463306 -0.438504,0.65006 -0.892228,1.289327 -1.347115,1.927939 -2.051206,2.87968 -0.973696,3.647194 1.07751,0.767514 v 0 c 0.457102,-0.641723 0.913059,-1.2841 1.353728,-1.937306 0.810273,-1.158724 1.637307,-2.305629 2.477717,-3.442689 0.949005,-1.303203 1.879909,-2.619711 2.852031,-3.905936 0.747829,-0.990443 1.509083,-1.97086 2.240272,-2.9738 0.251137,-0.346435 0.482481,-0.711911 0.760293,-1.036865 2.5,-2.5 1.564556,-3.435442 -0.935445,-0.935445 z" />
    <path
       style="font-variation-settings:'wght' 830;fill:#000000;stroke-width:1.178;stroke-linejoin:round;stroke-opacity:0.06"
       id="path9"
       d="M 100.90168,30.074685 C 99.983431,29.631884 99.034751,29.252331 98.093386,28.861446 96.387784,28.13666 94.656571,27.474617 92.929667,26.802893 91.28916,26.163625 89.647265,25.528496 88.01141,24.877384 c -0.902873,-0.350878 -1.803012,-0.708061 -2.698623,-1.07706 -3.269004,-1.346703 -3.772911,-0.123516 -0.503905,1.223188 v 0 c 0.90052,0.370939 1.80548,0.730295 2.7133,1.083003 1.639067,0.652391 3.284177,1.288788 4.927907,1.929307 1.717622,0.66811 3.439586,1.326457 5.135999,2.047409 0.898405,0.373013 1.802613,0.737093 2.682102,1.152835 3.10383,1.693 3.73732,0.531617 0.63349,-1.161381 z" />
    <path
       style="font-variation-settings:'wght' 830;fill:#000000;stroke-width:1.178;stroke-linejoin:round;stroke-opacity:0.06"
       id="path10"
       d="m 100.4115,33.110056 c -0.677759,0.984605 -1.351989,1.971728 -2.023554,2.960688 -1.242451,1.87906 -2.523404,3.732101 -3.766644,5.6106 -0.733158,1.112375 -1.468491,2.22327 -2.196907,3.338762 -1.933051,2.960287 -0.825379,3.683592 1.107675,0.723302 v 0 c 0.726922,-1.113227 1.460786,-2.221847 2.192438,-3.331964 1.240266,-1.874169 2.518448,-3.722746 3.757873,-5.597512 0.685449,-1.009415 1.376119,-2.015329 2.063509,-3.02324 1.81902,-3.031694 0.68463,-3.712329 -1.13439,-0.680636 z" />
    <path
       style="font-variation-settings:'wght' 830;fill:#000000;stroke-width:1.178;stroke-linejoin:round;stroke-opacity:0.06"
       id="path12"
       d="m 102.36373,37.547863 c 0.19691,0.836052 0.37093,1.677186 0.55434,2.516243 0.24055,1.188689 0.53647,2.364105 0.89455,3.522591 0.0539,0.161415 0.10775,0.322832 0.16163,0.484249 1.12052,3.353276 2.37524,2.934007 1.25473,-0.41927 v 0 c -0.0509,-0.152013 -0.10171,-0.304027 -0.15257,-0.456041 -0.34775,-1.122521 -0.63265,-2.262121 -0.86594,-3.414056 -0.18453,-0.844042 -0.35961,-1.690169 -0.5577,-2.531184 -0.795,-3.444994 -2.08404,-3.147523 -1.28904,0.297468 z" />
    <path
       style="font-variation-settings:'wght' 830;fill:#000000;stroke-width:1.178;stroke-linejoin:round;stroke-opacity:0.06"
       id="path13"
       d="m 104.46155,37.060124 c 0.71784,0.186459 1.45245,0.297696 2.18444,0.411731 0.98742,0.141449 1.97045,0.310724 2.95658,0.460711 3.49534,0.531566 3.69424,-0.776311 0.1989,-1.30788 v 0 c -0.98459,-0.149717 -1.96607,-0.318847 -2.95197,-0.46 -0.69255,-0.107756 -1.38793,-0.211584 -2.06709,-0.387979 -3.42997,-0.857494 -3.75083,0.425923 -0.32086,1.283417 z" />
    <path
       style="font-variation-settings:'wght' 830;fill:#000000;stroke-width:1.178;stroke-linejoin:round;stroke-opacity:0.06"
       id="path14"
       d="m 109.35261,38.787646 c -0.4174,0.681318 -0.79081,1.387306 -1.21377,2.06583 -0.61588,0.934947 -1.32254,1.805675 -2.02579,2.675374 -2.22294,2.749277 -1.19422,3.58105 1.02872,0.831773 v 0 c 0.7373,-0.911934 1.47734,-1.825644 2.12013,-2.807981 0.41495,-0.667316 0.78699,-1.358214 1.19144,-2.031174 1.96117,-2.941744 0.86043,-3.675565 -1.10073,-0.733822 z" />
    <path
       style="font-variation-settings:'wght' 830;fill:#000000;stroke-width:0.585666;stroke-linejoin:round;stroke-opacity:0.06"
       id="path15"
       d="m 104.55256,56.719175 c 0.49409,0.125855 0.98619,0.26104 1.479,0.392768 0.43764,0.115185 0.87432,0.235236 1.3147,0.337482 0.25604,0.04718 0.49384,0.09589 0.61081,-0.284694 0.0458,-0.148845 -0.0719,-0.300121 -0.14235,-0.408631 -0.11467,-0.179201 -0.23069,-0.366556 -0.29048,-0.577698 -0.0373,-0.131449 -0.0481,-0.26642 -0.0649,-0.401949 0.003,-0.14953 -10e-4,-0.300781 0.0282,-0.44829 0.0262,-0.129979 0.0895,-0.273419 0.15524,-0.384104 0.0898,-0.151229 0.15251,-0.210308 0.2664,-0.340239 0.12149,-0.106394 0.17516,-0.16573 0.31456,-0.240835 0.0796,-0.0429 0.22868,-0.09163 0.31525,-0.109101 0.1096,-0.02211 0.17893,-0.01666 0.2891,-0.01657 0.21029,0.02293 0.40196,0.120808 0.58669,0.226428 0.13458,0.07767 0.28006,0.18969 0.44311,0.158701 0.0673,-0.01279 0.1264,-0.05641 0.18959,-0.08461 0.039,-0.04418 0.0818,-0.0847 0.117,-0.13253 0.0393,-0.05347 0.10673,-0.192859 0.13573,-0.252924 0.0803,-0.166341 0.15817,-0.333798 0.24004,-0.499281 0.1749,-0.343269 0.37379,-0.672143 0.60505,-0.973563 0.0448,-0.05844 0.0924,-0.114314 0.13863,-0.171468 0.12986,-0.150621 0.25895,-0.304171 0.40693,-0.434356 0.067,-0.05893 0.14755,-0.120604 0.22763,-0.158424 0.0274,-0.01297 0.0574,-0.01861 0.086,-0.02794 0.017,0.0014 0.0357,-0.0039 0.0511,0.0042 0.006,0.0031 0.002,0.01821 -0.004,0.02089 -0.0251,0.01117 -0.0702,-0.0076 -0.0762,0.01185 -0.008,0.0253 4.7e-4,0.05362 -7.2e-4,0.08034 -0.002,0.05194 -0.007,0.103756 -0.0108,0.155637 -0.0107,0.07342 -0.0187,0.147373 -0.0321,0.220253 -0.0547,0.296671 -0.14513,0.582565 -0.24228,0.865354 -0.115,0.334771 -0.13694,0.379488 -0.26998,0.719093 -0.29057,0.722588 -0.59927,1.436216 -0.90709,2.150166 -0.21255,0.492728 -0.4025,0.996454 -0.62345,1.484841 -0.16082,0.349422 -0.34224,0.686689 -0.51305,1.030248 -0.12899,0.301444 -0.0984,0.350835 0.37253,0.574568 0.0528,0.02509 0.28442,-0.26224 0.32132,-0.306447 0.31402,-0.391914 0.56559,-0.835815 0.8202,-1.274186 0.23985,-0.41086 0.48176,-0.820491 0.74144,-1.216884 0.16333,-0.249272 0.24918,-0.370764 0.41802,-0.615705 0.31015,-0.447211 0.64707,-0.87263 1.02465,-1.253839 0.0616,-0.06223 0.12583,-0.121387 0.18874,-0.182078 0.19878,-0.192984 0.41654,-0.362343 0.65874,-0.484134 0.12012,-0.0604 0.15121,-0.06757 0.27326,-0.111387 0.0537,-0.0099 0.21388,-0.06866 0.25461,0.01047 0.004,0.0063 0.002,0.01436 0.004,0.02147 0.002,0.01006 0.005,0.02001 0.007,0.03005 0.0582,0.204691 0.0267,0.421163 -0.002,0.628303 -0.026,0.145838 -0.052,0.2941 -0.10724,0.431029 -0.0266,0.06651 -0.10621,0.216359 -0.14095,0.271876 -0.0292,0.04661 -0.0628,0.08959 -0.0943,0.134382 -0.11725,0.144515 -0.24895,0.274621 -0.39874,0.378169 -0.18075,0.124949 -0.38012,0.217556 -0.5745,0.313244 -0.37227,0.183529 -0.76889,0.291473 -1.16759,0.380149 -0.26367,0.05024 -0.52769,0.101841 -0.79448,0.127944 -0.0193,0.0012 -0.0386,0.0026 -0.0579,0.0037 -0.0118,6.75e-4 -0.0236,0.0012 -0.0355,0.0016 -4.7e-4,1.34e-4 10e-4,-4.12e-4 0.002,-5.71e-4 0.0375,0.221272 0.0751,0.442544 0.11257,0.663816 -0.0155,0.0089 -0.0129,0.0054 0.0114,0.0052 0.1282,-6.23e-4 0.25455,0.0292 0.37959,0.05692 0.15543,0.03664 0.30983,0.0798 0.46099,0.13379 0.12813,0.04581 0.23504,0.136374 0.33975,0.226037 0.15876,0.141114 0.28389,0.319954 0.40792,0.496088 0.1871,0.267468 0.32358,0.571014 0.47216,0.864479 0.17943,0.343308 0.36532,0.684893 0.58204,1.002229 0.0487,0.07137 0.10063,0.140083 0.15095,0.210125 0.22988,0.278216 0.4945,0.522086 0.79219,0.710092 0.17584,0.111046 0.24543,0.136131 0.42973,0.221316 0.29203,0.110673 0.59693,0.169919 0.90653,0.160482 0.18659,-0.0057 0.24791,-0.02302 0.42984,-0.05498 0.24139,-0.05809 0.4782,-0.147189 0.69179,-0.284752 0.11086,-0.0714 0.1397,-0.101559 0.23816,-0.185942 0.13919,-0.138362 0.30396,-0.323526 0.33292,-0.537096 0.008,-0.05823 0.002,-0.117682 0.004,-0.176536 -0.0171,-0.05679 -0.0273,-0.116533 -0.0512,-0.17035 -0.0203,-0.04614 -0.0495,-0.08756 -0.0801,-0.126438 -0.10917,-0.138867 -0.26117,-0.209595 -0.41339,-0.273306 -0.23571,-0.0826 -0.48411,-0.102153 -0.72992,-0.07712 -0.0575,0.0059 -0.1144,0.01627 -0.17159,0.02441 -0.38302,0.06499 -0.74616,0.215052 -1.1043,0.371071 -0.36662,0.159418 -0.72677,0.336222 -1.09294,0.496769 -0.0981,0.043 -0.19712,0.08329 -0.29568,0.12494 -0.4679,0.189928 -0.94061,0.366218 -1.41921,0.521439 -0.12334,0.04 -0.24669,0.08017 -0.37126,0.115329 -0.12716,0.03588 -0.25581,0.06514 -0.38372,0.09772 -0.38683,0.07656 -0.41805,0.08951 -0.81068,0.139767 -0.13686,0.01752 -0.27381,0.03565 -0.41136,0.04466 -0.24027,0.01572 -0.62108,0.01108 -0.86007,-3.83e-4 -0.14653,-0.007 -0.29272,-0.02101 -0.43908,-0.03151 -0.53451,-0.0479 -1.06952,-0.105723 -1.59391,-0.232382 -0.29792,-0.07196 -0.40312,-0.109351 -0.69412,-0.199279 -0.30084,-0.103268 -0.59787,-0.219128 -0.88621,-0.358827 -0.083,-0.04018 -0.16439,-0.08403 -0.24658,-0.126041 -1.52447,-0.777465 -1.79108,-0.155075 -0.26662,0.622389 v 0 c 0.0898,0.04566 0.17865,0.09336 0.26924,0.137021 0.31212,0.15036 0.63333,0.275807 0.95894,0.386595 0.30926,0.09514 0.42585,0.136258 0.74293,0.212058 0.55142,0.131821 1.11347,0.19454 1.67542,0.244039 0.40502,0.02848 0.52539,0.04443 0.93089,0.04318 0.15732,-4.82e-4 0.31478,-0.0027 0.4718,-0.01324 0.14498,-0.0097 0.28933,-0.02884 0.43357,-0.04751 0.42019,-0.05441 0.45463,-0.06865 0.8695,-0.151627 0.13754,-0.0353 0.27584,-0.06719 0.41259,-0.105889 0.12922,-0.03656 0.25718,-0.07829 0.38512,-0.119823 0.4925,-0.159873 0.97895,-0.341432 1.46041,-0.537098 0.10377,-0.04394 0.20804,-0.08653 0.31133,-0.131824 0.36296,-0.159143 0.71997,-0.334338 1.08333,-0.492478 0.31022,-0.135358 0.62392,-0.268731 0.95527,-0.328259 0.20359,-0.03173 0.39529,-0.04802 0.59571,0.01516 0.02,0.0079 0.0795,0.0307 0.10406,0.04226 0.0183,0.0086 0.0355,0.02201 0.0384,0.01633 0.0108,-0.02093 -0.039,-0.05604 -0.004,-0.07188 0.004,-0.01739 0.007,-0.03539 0.0134,-0.05192 7.2e-4,-0.0029 0.008,-0.0061 0.008,-0.0029 0.006,0.03941 -0.10152,0.147742 -0.12362,0.171836 -0.0592,0.05307 -0.0787,0.07385 -0.14593,0.119166 -0.15138,0.102062 -0.32232,0.165126 -0.49433,0.210634 -0.13009,0.02457 -0.18539,0.03976 -0.31793,0.04574 -0.22899,0.01034 -0.45425,-0.03006 -0.67181,-0.107154 -0.13294,-0.05993 -0.20867,-0.08878 -0.33428,-0.166759 -0.23759,-0.147498 -0.44976,-0.338282 -0.6361,-0.555744 -0.0439,-0.06071 -0.0893,-0.120181 -0.1318,-0.182118 -0.20332,-0.296574 -0.37685,-0.616631 -0.54497,-0.937756 -0.16397,-0.323784 -0.3161,-0.657497 -0.52434,-0.951281 -0.15676,-0.221862 -0.31747,-0.443911 -0.5199,-0.61901 -0.16323,-0.137992 -0.33335,-0.269037 -0.53256,-0.337611 -0.17417,-0.06114 -0.35125,-0.11245 -0.53031,-0.153631 -0.17985,-0.03955 -0.36193,-0.07801 -0.54638,-0.06903 -0.006,5.07e-4 -0.15769,0.0111 -0.15792,0.02471 -0.0125,0.717612 -0.10052,0.692839 0.22458,0.671027 0.2898,-0.02942 0.57694,-0.08286 0.86327,-0.139018 0.44447,-0.0995 0.88605,-0.222158 1.30092,-0.427277 0.23393,-0.11573 0.4703,-0.229717 0.68588,-0.384018 0.20081,-0.143736 0.37716,-0.322349 0.53206,-0.521873 0.0436,-0.06463 0.0901,-0.127065 0.1308,-0.193895 0.0658,-0.108203 0.1487,-0.276979 0.1942,-0.39602 0.0684,-0.178933 0.10409,-0.370316 0.13631,-0.559975 0.0415,-0.319104 0.0739,-0.641721 -0.0312,-0.952594 -0.0202,-0.05977 -0.0509,-0.114653 -0.0764,-0.171978 -0.10256,-0.140687 -0.12093,-0.194561 -0.27114,-0.283107 -0.22283,-0.131357 -0.4744,-0.103046 -0.70841,-0.0327 -0.15989,0.05954 -0.20332,0.07044 -0.35933,0.150918 -0.28896,0.149044 -0.55106,0.350612 -0.78971,0.581656 -0.0695,0.06736 -0.14039,0.13308 -0.20855,0.202069 -0.40145,0.406343 -0.76021,0.859188 -1.09049,1.335135 -0.17426,0.252903 -0.26193,0.376948 -0.43069,0.634753 -0.2651,0.405024 -0.51246,0.82327 -0.75738,1.243002 -0.23525,0.40508 -0.46635,0.816272 -0.75457,1.180168 -0.0238,0.02873 -0.0474,0.05767 -0.0714,0.08622 -0.0148,0.01762 -0.0491,0.02881 -0.0449,0.05228 0.004,0.01912 0.037,-0.02998 0.051,-0.01786 0.13998,0.12119 0.26942,0.25728 0.39079,0.400364 0.009,0.01105 -0.0284,0.03593 -0.0157,0.04184 0.0127,0.0059 0.0107,-0.02775 0.0161,-0.04164 0.17466,-0.351415 0.36024,-0.696371 0.52433,-1.053994 0.0346,-0.07702 0.0705,-0.153352 0.10427,-0.230822 0.18264,-0.4178 0.3398,-0.848412 0.52426,-1.26534 0.31105,-0.721447 0.62298,-1.442579 0.91641,-2.172845 0.14235,-0.364114 0.2831,-0.728165 0.39704,-1.104397 0.0666,-0.219827 0.11996,-0.421002 0.15887,-0.648272 0.0168,-0.09799 0.0257,-0.197354 0.0386,-0.29603 0.003,-0.196959 0.0237,-0.35449 -0.0433,-0.543618 -0.0694,-0.195543 -0.16139,-0.314693 -0.34161,-0.395478 -0.15796,-0.07082 -0.2581,-0.03222 -0.41493,-0.0069 -0.0617,0.02573 -0.12539,0.04613 -0.18495,0.07719 -0.31838,0.166069 -0.55832,0.464555 -0.79764,0.737315 -0.0529,0.06594 -0.10738,0.130494 -0.15882,0.197834 -0.25434,0.332919 -0.47332,0.6959 -0.66603,1.074469 -0.0819,0.165821 -0.16065,0.33311 -0.24046,0.50013 -0.0158,0.0333 -0.0323,0.06623 -0.0485,0.09934 -0.008,0.01673 -0.027,0.03137 -0.0246,0.05013 0.001,0.01143 0.0196,-0.0087 0.0294,-0.01299 0.14461,-0.03493 0.0662,-0.03376 0.1972,-0.0033 0.003,6.23e-4 -0.0179,-0.0029 -0.0545,-0.02302 -0.016,-0.0088 -0.13388,-0.07971 -0.13871,-0.08261 -0.2779,-0.157527 -0.56855,-0.288793 -0.88614,-0.304238 -0.18679,0.0046 -0.25879,-0.0026 -0.44682,0.04081 -0.36811,0.08507 -0.64914,0.267347 -0.92369,0.543374 -0.16139,0.1914 -0.24255,0.268398 -0.3668,0.496 -0.10946,0.200534 -0.17935,0.394588 -0.22098,0.623879 -0.0397,0.218536 -0.0274,0.398232 -0.0255,0.619341 0.0321,0.234919 0.037,0.339627 0.1063,0.567035 0.0796,0.261067 0.21924,0.495971 0.36305,0.719198 0.0137,0.01949 0.0347,0.08202 0.041,0.05848 0.0156,-0.05822 -0.0363,-0.129595 -0.008,-0.18178 0.0554,-0.102017 0.15187,-0.170952 0.23843,-0.24266 0.0134,-0.01109 0.067,0.0057 0.0503,0.0035 -0.20542,-0.02658 0.15393,0.03138 -0.14996,-0.02009 -0.4341,-0.100609 -0.86441,-0.219465 -1.29582,-0.332769 -0.49095,-0.131231 -0.98119,-0.26592 -1.47343,-0.391248 -1.63071,-0.453162 -1.78611,0.212607 -0.1554,0.665768 z" />
    <path
       style="font-variation-settings:'wght' 830;fill:#000000;stroke-width:1.178;stroke-linejoin:round;stroke-opacity:0.06"
       id="path16"
       d="m 100.71835,15.988217 c -0.0413,0.436165 -0.0128,0.19047 -0.0947,0.735959 -0.51559,3.497738 0.79318,3.69066 1.30878,0.192923 v 0 c 0.0961,-0.662375 0.0627,-0.352421 0.10886,-0.928882 0,-3.535534 -1.32292,-3.535534 -1.32292,0 z" />
    <path
       style="font-variation-settings:'wght' 830;fill:#000000;stroke-width:1.178;stroke-linejoin:round;stroke-opacity:0.06"
       id="path17"
       d="m 113.29843,17.687405 c -0.20032,0.27766 -0.39984,0.555852 -0.60098,0.832924 -2.0769,2.861207 -1.0063,3.638334 1.0706,0.777128 v 0 c 0.18897,-0.26037 0.37796,-0.52072 0.5634,-0.783632 2.20863,-2.760788 1.17561,-3.587208 -1.03302,-0.82642 z" />
    <path
       style="font-variation-settings:'wght' 830;fill:#000000;stroke-width:1.178;stroke-linejoin:round;stroke-opacity:0.06"
       id="path18"
       d="m 117.02143,29.003545 c 0.46617,-0.05857 0.92947,-0.138237 1.39335,-0.212185 3.49145,-0.556588 3.28319,-1.863008 -0.20826,-1.30642 v 0 c -0.46153,0.07357 -0.92244,0.152903 -1.38625,0.211071 -3.49442,0.537605 -3.29326,1.845136 0.20116,1.307534 z" />
    <path
       style="font-variation-settings:'wght' 830;fill:#000000;stroke-width:1.178;stroke-linejoin:round;stroke-opacity:0.06"
       id="path19"
       d="m 67.667306,50.08214 c 0.535,-0.03458 1.065159,-0.104976 1.595628,-0.18183 3.49872,-0.508876 3.30831,-1.818018 -0.19041,-1.309142 v 0 c -0.521793,0.07621 -1.043065,0.14329 -1.569305,0.178271 -3.508232,0.438531 -3.344145,1.751232 0.164087,1.312701 z" />
    <path
       style="font-variation-settings:'wght' 830;fill:#000000;stroke-width:1.178;stroke-linejoin:round;stroke-opacity:0.06"
       id="path21"
       d="m 72.569863,59.514043 c -0.777476,1.024221 -1.487191,2.097712 -2.210795,3.160062 -1.990336,2.922082 -0.896959,3.666821 1.093377,0.744739 v 0 c 0.726107,-1.06603 1.439363,-2.142173 2.218151,-3.170979 1.96116,-2.94174 0.860427,-3.675565 -1.100733,-0.733822 z" />
    <path
       style="font-variation-settings:'wght' 830;fill:#000000;stroke-width:1.178;stroke-linejoin:round;stroke-opacity:0.06"
       id="path22"
       d="m 82.510952,60.450459 c -0.07961,0.350452 -0.0299,0.139655 -0.154546,0.631098 -0.867553,3.427441 0.41492,3.752059 1.28247,0.324617 v 0 c 0.135149,-0.534958 0.08058,-0.302421 0.169301,-0.69627 0.693375,-3.466875 -0.60385,-3.72632 -1.297225,-0.259445 z" />
  </g>
</svg>
